<?xml version="1.0" encoding="UTF-8"?>
<svg width="12px" height="11px" viewBox="0 0 11 10" version="1.1" xmlns="http://www.w3.org/2000/svg" xmlns:xlink="http://www.w3.org/1999/xlink">
    <!-- Generator: sketchtool 52.6 (67491) - http://www.bohemiancoding.com/sketch -->
    <title>C9019FC0-F8E8-4795-9D86-3D7232B32E54</title>
    <desc>Created with sketchtool.</desc>
    <g id="Desktop" stroke="none" stroke-width="1" fill="none" fill-rule="evenodd">
        <g id="Uptimia-Product-description" transform="translate(-1374.000000, -3479.000000)" fill="#7AA2BA" fill-rule="nonzero">
            <g id="Group-2" transform="translate(39.000000, 3179.000000)">
                <g id="arrow/in-circle" transform="translate(1321.000000, 285.000000)">
                    <g id="arrow/iconArrow-arrow/iconArrow-Copy-2" transform="translate(15.000000, 16.000000)">
                        <path d="M6.00688644,2.7557 L3.95829322,0.707106781 C3.56776893,0.316582489 3.56776893,-0.316582489 3.95829322,-0.707106781 C4.34881751,-1.09763107 4.98198249,-1.09763107 5.37250678,-0.707106781 L9.12850678,3.04889322 C9.13571738,3.05611005 9.14281746,3.06343557 9.14980511,3.07086801 C9.5189321,3.4628447 9.51178577,4.07992985 9.12841263,4.46320092 L5.37241263,8.21820092 C4.98183635,8.60867321 4.34867138,8.60858891 3.95819908,8.21801263 C3.56772679,7.82743635 3.56781109,7.19427138 3.95838737,6.80379908 L6.00703188,4.7557 L0.0001,4.7557 C-0.55218475,4.7557 -0.9999,4.30798475 -0.9999,3.7557 C-0.9999,3.20341525 -0.55218475,2.7557 0.0001,2.7557 L6.00688644,2.7557 Z" id="arrow"></path>
                    </g>
                </g>
            </g>
        </g>
    </g>
</svg>